<?xml version="1.0" encoding="utf-8"?>
<svg viewBox="0 0 500 500" xmlns="http://www.w3.org/2000/svg">
  <path d="M 434.216 195.063 L 434.092 195.063 L 362.602 225.59 L 264.788 267.357 C 264.016 267.682 263.147 267.686 262.372 267.369 L 161.457 225.503 L 88.211 195.113 L 88.099 195.063 L 87.974 195.063 C 85.568 195.066 83.618 197.016 83.615 199.422 L 83.615 388.734 C 83.618 391.141 85.568 393.091 87.974 393.094 L 434.216 393.094 C 436.623 393.091 438.573 391.141 438.575 388.734 L 438.575 199.422 C 438.573 197.016 436.623 195.066 434.216 195.063 Z" fill="#fff"/>
  <path d="M 434.527 196.309 C 434.4 196.309 434.276 196.27 434.172 196.197 L 261.948 76.256 C 260.875 75.512 259.452 75.514 258.381 76.262 L 87.398 196.196 C 87.004 196.47 86.462 196.215 86.422 195.737 C 86.403 195.517 86.502 195.304 86.683 195.176 L 257.666 75.242 C 259.165 74.195 261.157 74.192 262.66 75.234 L 434.883 195.175 C 435.277 195.449 435.226 196.046 434.792 196.25 C 434.709 196.289 434.619 196.309 434.527 196.309 L 434.527 196.309 Z" fill="#3f3d56"/>
  <polygon points="97.168 200.561 260.332 79.636 424.735 209.165 268.739 301.641 184.047 282.337 97.168 200.561" fill="#e6e6e6"/>
  <path d="M 191.196 358.76 L 110.589 358.76 C 107.69 358.764 105.874 355.629 107.319 353.116 C 107.99 351.95 109.233 351.23 110.578 351.228 L 191.196 351.228 C 194.096 351.224 195.912 354.359 194.466 356.872 C 193.795 358.038 192.553 358.758 191.208 358.76 L 191.196 358.76 Z"  fill="#ccc"/>
  <path d="M 139.509 342.569 L 110.589 342.569 C 107.69 342.571 105.876 339.434 107.323 336.922 C 107.994 335.758 109.234 335.04 110.578 335.037 L 139.509 335.037 C 142.408 335.031 144.227 338.165 142.783 340.679 C 142.112 341.847 140.868 342.568 139.52 342.569 L 139.509 342.569 Z"  fill="#ccc"/>
  <path d="M 262.627 267.914 C 262.015 267.915 261.408 267.796 260.841 267.564 L 160.212 225.81 L 160.212 95.114 C 160.215 92.708 162.165 90.758 164.571 90.755 L 357.62 90.755 C 360.026 90.758 361.976 92.708 361.979 95.114 L 361.979 225.901 L 361.79 225.982 L 264.468 267.544 C 263.885 267.788 263.259 267.914 262.627 267.914 Z" fill="#fff"/>
  <path d="M 262.627 268.225 C 261.974 268.226 261.327 268.099 260.722 267.852 L 159.901 226.018 L 159.901 95.114 C 159.904 92.536 161.993 90.446 164.571 90.443 L 357.62 90.443 C 360.198 90.446 362.287 92.536 362.29 95.114 L 362.29 226.107 L 264.59 267.83 C 263.969 268.091 263.301 268.226 262.627 268.225 Z M 161.146 225.186 L 261.197 266.701 C 262.13 267.079 263.175 267.073 264.104 266.683 L 361.045 225.285 L 361.045 95.114 C 361.042 93.223 359.51 91.691 357.62 91.689 L 164.571 91.689 C 162.68 91.691 161.148 93.223 161.146 95.114 L 161.146 225.186 Z" fill="#3f3d56"/>
  <path d="M 433.282 195.063 L 433.157 195.063 L 361.667 225.59 L 263.854 267.357 C 263.082 267.682 262.213 267.686 261.438 267.369 L 160.523 225.503 L 87.277 195.113 L 87.165 195.063 L 87.04 195.063 C 84.634 195.066 82.684 197.016 82.681 199.422 L 82.681 388.734 C 82.684 391.141 84.634 393.091 87.04 393.094 L 433.282 393.094 C 435.688 393.091 437.639 391.141 437.641 388.734 L 437.641 199.422 C 437.639 197.016 435.688 195.066 433.282 195.063 Z M 436.396 388.734 C 436.395 390.454 435.001 391.847 433.282 391.848 L 87.04 391.848 C 85.321 391.847 83.927 390.454 83.927 388.734 L 83.927 199.422 C 83.929 197.749 85.25 196.376 86.922 196.309 L 160.523 226.848 L 260.958 268.521 C 262.046 268.964 263.264 268.957 264.346 268.503 L 361.667 226.941 L 433.407 196.309 C 435.075 196.381 436.392 197.752 436.396 199.422 L 436.396 388.734 Z" fill="#3f3d56"/>
  <path d="M 246.961 139.609 L 178.46 139.609 C 174.625 139.604 172.234 135.449 174.156 132.13 C 175.046 130.595 176.685 129.648 178.46 129.646 L 246.961 129.646 C 250.796 129.651 253.187 133.806 251.265 137.125 C 250.375 138.66 248.736 139.607 246.961 139.609 Z"  fill="#ccc"/>
  <path d="M 211.465 118.436 L 178.46 118.436 C 174.625 118.436 172.228 114.285 174.146 110.964 C 175.036 109.422 176.68 108.473 178.46 108.473 L 211.465 108.473 C 215.3 108.473 217.697 112.624 215.78 115.945 C 214.89 117.487 213.245 118.436 211.465 118.436 Z"  fill="#ccc"/>
  <path d="M 312.329 189.428 L 207.709 189.428 C 203.874 189.423 201.483 185.268 203.405 181.949 C 204.295 180.414 205.934 179.467 207.709 179.465 L 312.329 179.465 C 316.164 179.47 318.555 183.625 316.633 186.944 C 315.743 188.479 314.104 189.426 312.329 189.428 Z" fill="#ccc"/>
  <path d="M 312.329 212.47 L 207.709 212.47 C 203.874 212.47 201.477 208.318 203.395 204.997 C 204.285 203.455 205.929 202.506 207.709 202.506 L 312.329 202.506 C 316.164 202.506 318.561 206.657 316.643 209.979 C 315.753 211.52 314.109 212.47 312.329 212.47 Z" fill="#ccc"/>
  <circle cx="431.351" cy="196.869" r="47.371" style="fill: rgb(22, 82, 240);"/>
  <polygon points="426.837 216.866 412.659 198.635 420.904 192.222 427.617 200.854 450.296 176.913 457.88 184.098 426.837 216.866" fill="#fff"/>
  <path d="M487.35223,193.54645a1.99891,1.99891,0,0,0-2.99778,1.99087l1.54384,11.32333a1.29955,1.29955,0,0,1-.03357.49905,1.22138,1.22138,0,0,1-.23734.43608l-8.64673,10.24363a1.95391,1.95391,0,0,0-.12721,2.41351l.00908.01314a1.95123,1.95123,0,0,0,2.28266.752l6.24446-2.1195a1.20226,1.20226,0,0,1,1.20761.27169,1.16219,1.16219,0,0,1,.37242.85434l.24409,22.24892a1.984,1.984,0,0,0,.87415,1.62894,2.004,2.004,0,0,0,1.83248.2134l46.6071-17.82452a1.99756,1.99756,0,0,0,.30651-3.58642l-.63455-.37689-48.84721-28.98158Zm-2.20874,1.88208a1.20067,1.20067,0,0,1,1.8019-1.19268L535.777,223.20879l.65006.38537a1.20112,1.20112,0,0,1-.18261,2.151l-46.60706,17.82454a1.19819,1.19819,0,0,1-1.62406-1.10553l-.244-22.24873a1.91512,1.91512,0,0,0-.1118-.646l47.45031,5.45193a.79968.79968,0,0,0,.47957-1.49692.69588.69588,0,0,0-.125-.0544L486.7016,207.1936a1.97024,1.97024,0,0,0-.01428-.44177l-1.54385-11.32329Z" transform="matrix(1, 0, 0, 1, -394.405724, -302.867279)" fill="#f1f1f1"/>
  <path d="M487.35223,193.54645a1.99891,1.99891,0,0,0-2.99778,1.99087l1.54384,11.32333a1.29955,1.29955,0,0,1-.03357.49905,1.22138,1.22138,0,0,1-.23734.43608l-8.64673,10.24363a1.95391,1.95391,0,0,0-.12721,2.41351l.00908.01314a1.95123,1.95123,0,0,0,2.28266.752l6.24446-2.1195a1.20226,1.20226,0,0,1,1.20761.27169,1.16219,1.16219,0,0,1,.37242.85434l.24409,22.24892a1.984,1.984,0,0,0,.87415,1.62894,2.004,2.004,0,0,0,1.83248.2134l46.6071-17.82452a1.99756,1.99756,0,0,0,.30651-3.58642l-.63455-.37689-48.84721-28.98158Zm-2.20874,1.88208a1.20067,1.20067,0,0,1,1.8019-1.19268L535.777,223.20879l.65006.38537a1.20112,1.20112,0,0,1-.18261,2.151l-46.60706,17.82453a1.19819,1.19819,0,0,1-1.62405-1.10553l-.24405-22.24875a1.91516,1.91516,0,0,0-.1118-.646,1.94312,1.94312,0,0,0-.5119-.78227c-.03153-.03154-.06634-.06083-.10123-.09025l-.00222-.00321a1.99249,1.99249,0,0,0-1.90795-.35062l-6.24773,2.12177a1.16242,1.16242,0,0,1-1.36924-.45629l-.00455-.00658a1.15986,1.15986,0,0,1,.07714-1.44692l8.64685-10.24347a1.88917,1.88917,0,0,0,.23875-.3498l.0033-.00226a1.91585,1.91585,0,0,0,.15205-.37685,1.857,1.857,0,0,0,.07088-.389,1.97017,1.97017,0,0,0-.01428-.44176l-1.54386-11.32332Z" transform="matrix(1, 0, 0, 1, -394.405724, -302.867279)" fill="#e5e5e5"/>
</svg>
